<svg xmlns="http://www.w3.org/2000/svg" viewBox="0 0 120 120" width="120" height="120">
  <defs>
    <linearGradient id="g2" x1="0%" y1="0%" x2="100%" y2="100%">
      <stop offset="0%" stop-color="#7b68ee"/>
      <stop offset="100%" stop-color="#5b48ce"/>
    </linearGradient>
  </defs>
  <rect width="120" height="120" rx="24" fill="#1a1a2e"/>
  <g transform="translate(60,60)">
    <!-- Water waves -->
    <path d="M-32,-12 Q-24,-24 -16,-12 Q-8,0 0,-12 Q8,-24 16,-12 Q24,0 32,-12" fill="none" stroke="url(#g2)" stroke-width="3" stroke-linecap="round"/>
    <path d="M-32,2 Q-24,-10 -16,2 Q-8,14 0,2 Q8,-10 16,2 Q24,14 32,2" fill="none" stroke="url(#g2)" stroke-width="3" stroke-linecap="round" opacity="0.6"/>
    <path d="M-32,16 Q-24,4 -16,16 Q-8,28 0,16 Q8,4 16,16 Q24,28 32,16" fill="none" stroke="url(#g2)" stroke-width="3" stroke-linecap="round" opacity="0.3"/>
    <!-- Flow arrows -->
    <line x1="-35" y1="-28" x2="-20" y2="-28" stroke="#00d4aa" stroke-width="2"/>
    <polygon points="-17,-28 -22,-31 -22,-25" fill="#00d4aa"/>
    <line x1="20" y1="-28" x2="35" y2="-28" stroke="#00d4aa" stroke-width="2"/>
    <polygon points="38,-28 33,-31 33,-25" fill="#00d4aa"/>
  </g>
</svg>
